<svg width="42" height="42" viewBox="0 0 42 42" fill="none" xmlns="http://www.w3.org/2000/svg">
<g id="icons8-yandex-zen 1">
<path id="Vector" d="M39.391 20.1483C39.3944 20.1483 39.3969 20.1483 39.4002 20.1483C39.6346 20.1483 39.858 20.05 40.0168 19.8778C40.1781 19.7031 40.2579 19.4687 40.2369 19.2319C39.3935 9.95574 32.0494 2.6091 22.7724 1.76406C22.5372 1.74558 22.3004 1.82202 22.1256 1.98414C21.9509 2.14542 21.8535 2.37306 21.856 2.61078C22.0022 14.9386 23.6284 19.9761 39.391 20.1483ZM39.391 21.8518C23.6284 22.024 22.003 27.0615 21.8568 39.3893C21.8543 39.6271 21.9518 39.8547 22.1265 40.016C22.2827 40.1596 22.4868 40.2394 22.6968 40.2394C22.722 40.2394 22.7481 40.2386 22.7733 40.2361C32.0502 39.391 39.3944 32.0452 40.2369 22.7683C40.2579 22.5314 40.1789 22.297 40.0168 22.1223C39.8547 21.9476 39.6287 21.8611 39.391 21.8518ZM19.1714 1.76826C9.92379 2.63766 2.60319 9.98262 1.76403 19.2335C1.74303 19.4704 1.82199 19.7048 1.98411 19.8795C2.14287 20.0517 2.36715 20.1491 2.60067 20.1491C2.60403 20.1491 2.60739 20.1491 2.61075 20.1491C18.3213 19.9685 19.9433 14.9336 20.0912 2.61414C20.0937 2.37642 19.9954 2.14794 19.8207 1.98666C19.6443 1.82538 19.4082 1.74642 19.1714 1.76826ZM2.60991 21.851C2.34867 21.8216 2.14371 21.9459 1.98327 22.1206C1.82199 22.2953 1.74219 22.5297 1.76319 22.7666C2.60235 32.0175 9.92379 39.3625 19.1714 40.2319C19.1974 40.2344 19.2243 40.2352 19.2503 40.2352C19.4603 40.2352 19.6636 40.1563 19.8198 40.0126C19.9946 39.8513 20.0928 39.6229 20.0903 39.3851C19.9425 27.0665 18.3213 22.0316 2.60991 21.851Z" fill="white"/>
</g>
</svg>
