<svg width="42" height="42" viewBox="0 0 42 42" fill="none" xmlns="http://www.w3.org/2000/svg">
<g id="icons8-vk 1">
<path id="Vector" d="M20.9201 1.68005C10.3113 1.68005 1.68005 10.3113 1.68005 20.9201C1.68005 31.5288 10.3113 40.1601 20.9201 40.1601C31.5297 40.1601 40.1601 31.5288 40.1601 20.9201C40.1601 10.3113 31.5297 1.68005 20.9201 1.68005ZM29.2627 24.7137C31.134 26.375 31.523 26.9681 31.5865 27.0693C32.362 28.299 30.7266 28.4487 30.7266 28.4487H27.2801C27.2801 28.4487 26.4411 28.458 25.7242 27.9828C24.5556 27.2174 23.3317 25.7334 22.4718 25.991C21.7499 26.2069 21.7566 27.1823 21.7566 28.0163C21.7566 28.3149 21.4998 28.4487 20.9201 28.4487C20.3403 28.4487 20.0994 28.4487 19.8426 28.4487C17.9546 28.4487 15.9059 27.813 13.8623 25.6774C10.9713 22.6583 8.4358 16.5768 8.4358 16.5768C8.4358 16.5768 8.28607 16.2707 8.44919 16.0841C8.63406 15.875 9.13681 15.9018 9.13681 15.9018L12.4787 15.9009C12.4787 15.9009 12.7932 15.9603 13.0191 16.1193C13.2057 16.2498 13.3094 16.499 13.3094 16.499C13.3094 16.499 13.8707 18.3528 14.5859 19.5348C15.9829 21.8419 16.6329 21.9005 17.1072 21.652C17.7998 21.2923 17.574 18.8396 17.574 18.8396C17.574 18.8396 17.6049 17.7864 17.2435 17.3172C16.965 16.9541 16.4321 16.7609 16.1996 16.7308C16.0113 16.7065 16.3259 16.3769 16.7266 16.1887C17.2619 15.9503 17.9906 15.8892 19.247 15.9009C20.2249 15.9101 20.5068 15.9687 20.8883 16.0565C22.0418 16.3225 21.7566 17.0244 21.7566 19.4888C21.7566 20.2784 21.6478 21.3885 22.2434 21.7566C22.5002 21.9155 23.3803 22.1096 24.9462 19.5666C25.6899 18.3603 26.2813 16.3593 26.2813 16.3593C26.2813 16.3593 26.4035 16.1393 26.5933 16.0306C26.7874 15.9193 26.7816 15.9218 27.0476 15.9218C27.3136 15.9218 29.9813 15.9009 30.5668 15.9009C31.1516 15.9009 31.7003 15.8942 31.7948 16.2372C31.9304 16.7299 31.3632 18.418 29.926 20.25C27.5645 23.2565 27.3027 22.9754 29.2627 24.7137Z" fill="white"/>
</g>
</svg>
